<svg xmlns="http://www.w3.org/2000/svg" xmlns:xlink="http://www.w3.org/1999/xlink" version="1.1" x="0px" y="0px" viewBox="0 0 100 125" enable-background="new 0 0 100 100" xml:space="preserve"><path d="M9,9v84h83V9H9z M88,89H13V13h75V89z"/><path d="M83.576,50.893l-6.695,2.679L75,31l-5,2l-7-11l-10.951,3.833l-2.867-7.037l-8.663,14.078l-15.894-4.312l-4.079-1.048  l1.555,14.524l1.555,14.524l2.493,0.719l0.479,0.138l0.404,16.992l9.093-3.274L37,79l10.097-5.049l15.206,9.412L83.576,50.893z   M71.094,55.886l-16.307,6.523l2.063-4.718L57,58L71.094,55.886z M50.158,26.495l-4.289,1.501l2.949-4.792L50.158,26.495z   M28.967,71.589L28.03,32.243l13.451,2.883l2.509-4.076l11.716,24.27l-3.45,7.886l-0.461,0.166L50,52l-15,9l0.899,8.094  L28.967,71.589z M49.201,72.899L53,71l-0.85-5.384l26.273-10.509L61.697,80.636L49.201,72.899z"/></svg>
